<?xml version="1.0" encoding="UTF-8"?><svg xmlns="http://www.w3.org/2000/svg" xmlns:xlink="http://www.w3.org/1999/xlink" width="375" zoomAndPan="magnify" viewBox="0 0 375 374.999991" height="374.999991" preserveAspectRatio="xMidYMid meet" version="1.0"><defs><clipPath id="clip-0"><path d="M 16 69.640625 L 359 69.640625 L 359 113 L 16 113 Z M 16 69.640625 " clip-rule="nonzero"/></clipPath><clipPath id="clip-1"><path d="M 16 262 L 359 262 L 359 305.140625 L 16 305.140625 Z M 16 262 " clip-rule="nonzero"/></clipPath></defs><g clip-path="url(#clip-0)"><path fill="rgb(0%, 0%, 0%)" d="M 337.058594 69.742188 L 38.128906 69.742188 C 26.351562 69.742188 16.777344 79.304688 16.777344 91.066406 C 16.777344 102.824219 26.351562 112.386719 38.128906 112.386719 L 337.058594 112.386719 C 348.828125 112.386719 358.410156 102.824219 358.410156 91.066406 C 358.410156 79.304688 348.828125 69.742188 337.058594 69.742188 Z M 337.058594 69.742188 " fill-opacity="1" fill-rule="nonzero"/></g><path fill="rgb(0%, 0%, 0%)" d="M 337.058594 166.070312 L 38.128906 166.070312 C 26.351562 166.070312 16.777344 175.632812 16.777344 187.390625 C 16.777344 199.152344 26.351562 208.714844 38.128906 208.714844 L 337.058594 208.714844 C 348.828125 208.714844 358.410156 199.152344 358.410156 187.390625 C 358.410156 175.632812 348.828125 166.070312 337.058594 166.070312 Z M 337.058594 166.070312 " fill-opacity="1" fill-rule="nonzero"/><g clip-path="url(#clip-1)"><path fill="rgb(0%, 0%, 0%)" d="M 337.058594 262.398438 L 38.128906 262.398438 C 26.351562 262.398438 16.777344 271.960938 16.777344 283.71875 C 16.777344 295.476562 26.351562 305.039062 38.128906 305.039062 L 337.058594 305.039062 C 348.828125 305.039062 358.410156 295.476562 358.410156 283.71875 C 358.410156 271.960938 348.828125 262.398438 337.058594 262.398438 Z M 337.058594 262.398438 " fill-opacity="1" fill-rule="nonzero"/></g></svg>